<?xml version="1.0" encoding="utf-8"?>
<!-- Generator: Adobe Illustrator 24.1.3, SVG Export Plug-In . SVG Version: 6.00 Build 0)  -->
<svg version="1.1" id="Capa_1" xmlns="http://www.w3.org/2000/svg" xmlns:xlink="http://www.w3.org/1999/xlink" x="0px" y="0px"
	 viewBox="0 0 512 512" style="enable-background:new 0 0 512 512;" xml:space="preserve">
<style type="text/css">
	.st0{fill:#FFFFFF;}
</style>
<g>
	<path class="st0" d="M495,466.1L375.8,346.9c29.1-35.5,46.5-80.8,46.5-130.3C422.3,103.1,330.2,11,216.7,11
		C103.1,11,11,103.1,11,216.7s92.1,205.7,205.7,205.7c49.4,0,94.8-17.4,130.3-46.5L466.1,495c8,8,20.9,8,28.9,0S503,474.1,495,466.1
		L495,466.1z M51.8,216.7c0-91,73.8-164.8,164.8-164.8s164.8,73.8,164.8,164.8s-73.8,164.8-164.8,164.8S51.8,307.7,51.8,216.7
		L51.8,216.7z"/>
</g>
</svg>
